ffmpeg started on 2026-01-13 at 10:30:21
Report written to "D:\Convert\FFMetrics\reports\ssim_report-6.txt"
Log level: 32
Command line:
ffmpeg -hide_banner -nostdin -r 24000/1001 -i "F:\\Convert\\files\\[DC] Make Heroine ga Oosugiru - 07_Telegram_HEVC(117).mkv" -r 24000/1001 -i "F:\\Convert\\files\\[DC] Make Heroine ga Oosugiru - 07_Telegram.mp4" -lavfi "[0:v]settb=AVTB,setpts=PTS-STARTPTS,format=pix_fmts=yuv420p10le,fps=24000/1001,scale=1920:1080:flags=lanczos:param0=3:out_range=limited:out_color_matrix=bt709:out_chroma_loc=left,setsar=1/1,setdar=(1920/1080)*(1/1),colorspace=format=yuv420p10:range=tv:primaries=bt709:trc=bt709:space=bt709:fast=0[main];[1:v]settb=AVTB,setpts=PTS-STARTPTS,format=pix_fmts=yuv420p,fps=24000/1001,scale=1920:1080:flags=lanczos:param0=3:out_range=limited:out_color_matrix=bt709:out_chroma_loc=left,setsar=1.000,setdar=1.778,colorspace=format=yuv420p:range=tv:primaries=bt709:trc=bt709:space=bt709:fast=0[ref];[main][ref]ssim=eof_action=endall:stats_file='D\\:/Convert/FFMetrics/logs/ssim_logfile-6.txt'" -f null -
Input #0, matroska,webm, from 'F:\Convert\files\[DC] Make Heroine ga Oosugiru - 07_Telegram_HEVC(117).mkv':
  Metadata:
    COMPATIBLE_BRANDS: isomiso2avc1mp41
    MAJOR_BRAND     : isom
    MINOR_VERSION   : 512
    ENCODER         : Lavf61.7.100
  Duration: 00:24:06.79, start: -0.021000, bitrate: 968 kb/s
  Stream #0:0: Video: hevc (Main 10), yuv420p10le(tv, bt709, progressive), 1920x1080 [SAR 1:1 DAR 16:9], 23.98 fps, 23.98 tbr, 1k tbn (default)
      Metadata:
        HANDLER_NAME    : VideoHandler
        VENDOR_ID       : [0][0][0][0]
        ENCODER         : Lavc61.19.100 libx265
        BPS             : 771390
        DURATION        : 00:24:06.569708333
        NUMBER_OF_FRAMES: 34683
        NUMBER_OF_BYTES : 139483779
        _STATISTICS_WRITING_APP: mkvpropedit v94.0 ('Initiate') 64-bit
        _STATISTICS_WRITING_DATE_UTC: 2026-01-12 15:19:17
        _STATISTICS_TAGS: BPS DURATION NUMBER_OF_FRAMES NUMBER_OF_BYTES
  Stream #0:1: Audio: aac (LC), 48000 Hz, stereo, fltp (default)
      Metadata:
        HANDLER_NAME    : SoundHandler
        VENDOR_ID       : [0][0][0][0]
        ENCODER         : Lavc61.19.100 aac
        BPS             : 193194
        DURATION        : 00:24:06.784000000
        NUMBER_OF_FRAMES: 67819
        NUMBER_OF_BYTES : 34938755
        _STATISTICS_WRITING_APP: mkvpropedit v94.0 ('Initiate') 64-bit
        _STATISTICS_WRITING_DATE_UTC: 2026-01-12 15:19:17
        _STATISTICS_TAGS: BPS DURATION NUMBER_OF_FRAMES NUMBER_OF_BYTES
Input #1, mov,mp4,m4a,3gp,3g2,mj2, from 'F:\Convert\files\[DC] Make Heroine ga Oosugiru - 07_Telegram.mp4':
  Metadata:
    major_brand     : isom
    minor_version   : 512
    compatible_brands: isomiso2avc1mp41
    encoder         : Lavf60.16.100
  Duration: 00:24:06.74, start: 0.000000, bitrate: 3764 kb/s
  Stream #1:0[0x1](und): Video: h264 (High) (avc1 / 0x31637661), yuv420p(tv, bt709, progressive), 1920x1080 [SAR 1:1 DAR 16:9], 3616 kb/s, 23.98 fps, 23.98 tbr, 24k tbn (default)
      Metadata:
        handler_name    : VideoHandler
        vendor_id       : [0][0][0][0]
        encoder         : Lavc60.31.102 h264_qsv
  Stream #1:1[0x2](und): Audio: aac (HE-AACv2) (mp4a / 0x6134706D), 48000 Hz, stereo, fltp, 144 kb/s (default)
      Metadata:
        handler_name    : SoundHandler
        vendor_id       : [0][0][0][0]
Stream mapping:
  Stream #0:0 (hevc) -> settb:default
  Stream #1:0 (h264) -> settb:default
  ssim:default -> Stream #0:0 (wrapped_avframe)
  Stream #0:1 -> #0:1 (aac (native) -> pcm_s16le (native))
Output #0, null, to 'pipe:':
  Metadata:
    COMPATIBLE_BRANDS: isomiso2avc1mp41
    MAJOR_BRAND     : isom
    MINOR_VERSION   : 512
    encoder         : Lavf61.7.100
  Stream #0:0: Video: wrapped_avframe, yuv420p10le(tv, bt709, progressive), 1920x1080 [SAR 1:1 DAR 16:9], q=2-31, 200 kb/s, 23.98 fps, 23.98 tbn
      Metadata:
        encoder         : Lavc61.19.100 wrapped_avframe
  Stream #0:1: Audio: pcm_s16le, 48000 Hz, stereo, s16, 1536 kb/s (default)
      Metadata:
        HANDLER_NAME    : SoundHandler
        VENDOR_ID       : [0][0][0][0]
        _STATISTICS_TAGS: BPS DURATION NUMBER_OF_FRAMES NUMBER_OF_BYTES
        BPS             : 193194
        DURATION        : 00:24:06.784000000
        NUMBER_OF_FRAMES: 67819
        NUMBER_OF_BYTES : 34938755
        _STATISTICS_WRITING_APP: mkvpropedit v94.0 ('Initiate') 64-bit
        _STATISTICS_WRITING_DATE_UTC: 2026-01-12 15:19:17
        encoder         : Lavc61.19.100 pcm_s16le
frame=  111 fps=0.0 q=-0.0 size=N/A time=00:00:04.62 bitrate=N/A speed=9.08x    frame=  288 fps=278 q=-0.0 size=N/A time=00:00:12.01 bitrate=N/A speed=11.6x    frame=  444 fps=287 q=-0.0 size=N/A time=00:00:18.51 bitrate=N/A speed=  12x    frame=  628 fps=305 q=-0.0 size=N/A time=00:00:26.19 bitrate=N/A speed=12.7x    frame=  802 fps=311 q=-0.0 size=N/A time=00:00:33.45 bitrate=N/A speed=  13x    frame=  953 fps=306 q=-0.0 size=N/A time=00:00:39.74 bitrate=N/A speed=12.8x    frame= 1103 fps=305 q=-0.0 size=N/A time=00:00:46.00 bitrate=N/A speed=12.7x    frame= 1248 fps=302 q=-0.0 size=N/A time=00:00:52.05 bitrate=N/A speed=12.6x    frame= 1407 fps=302 q=-0.0 size=N/A time=00:00:58.68 bitrate=N/A speed=12.6x    frame= 1546 fps=299 q=-0.0 size=N/A time=00:01:04.48 bitrate=N/A speed=12.5x    frame= 1697 fps=299 q=-0.0 size=N/A time=00:01:10.77 bitrate=N/A speed=12.5x    frame= 1856 fps=299 q=-0.0 size=N/A time=00:01:17.41 bitrate=N/A speed=12.5x    frame= 2018 fps=300 q=-0.0 size=N/A time=00:01:24.16 bitrate=N/A speed=12.5x    frame= 2116 fps=292 q=-0.0 size=N/A time=00:01:28.25 bitrate=N/A speed=12.2x    frame= 2264 fps=292 q=-0.0 size=N/A time=00:01:34.42 bitrate=N/A speed=12.2x    frame= 2383 fps=289 q=-0.0 size=N/A time=00:01:39.39 bitrate=N/A speed=  12x    frame= 2512 fps=286 q=-0.0 size=N/A time=00:01:44.77 bitrate=N/A speed=11.9x    frame= 2656 fps=286 q=-0.0 size=N/A time=00:01:50.77 bitrate=N/A speed=11.9x    frame= 2821 fps=288 q=-0.0 size=N/A time=00:01:57.65 bitrate=N/A speed=  12x    frame= 2963 fps=287 q=-0.0 size=N/A time=00:02:03.58 bitrate=N/A speed=  12x    frame= 3139 fps=290 q=-0.0 size=N/A time=00:02:10.92 bitrate=N/A speed=12.1x    frame= 3301 fps=291 q=-0.0 size=N/A time=00:02:17.67 bitrate=N/A speed=12.1x    frame= 3478 fps=293 q=-0.0 size=N/A time=00:02:25.06 bitrate=N/A speed=12.2x    frame= 3639 fps=294 q=-0.0 size=N/A time=00:02:31.77 bitrate=N/A speed=12.2x    frame= 3813 fps=295 q=-0.0 size=N/A time=00:02:39.03 bitrate=N/A speed=12.3x    frame= 3951 fps=294 q=-0.0 size=N/A time=00:02:44.78 bitrate=N/A speed=12.3x    frame= 4130 fps=296 q=-0.0 size=N/A time=00:02:52.25 bitrate=N/A speed=12.4x    frame= 4296 fps=297 q=-0.0 size=N/A time=00:02:59.17 bitrate=N/A speed=12.4x    frame= 4468 fps=298 q=-0.0 size=N/A time=00:03:06.35 bitrate=N/A speed=12.4x    frame= 4590 fps=296 q=-0.0 size=N/A time=00:03:11.44 bitrate=N/A speed=12.4x    frame= 4772 fps=298 q=-0.0 size=N/A time=00:03:19.03 bitrate=N/A speed=12.4x    frame= 4952 fps=300 q=-0.0 size=N/A time=00:03:26.53 bitrate=N/A speed=12.5x    frame= 5132 fps=301 q=-0.0 size=N/A time=00:03:34.04 bitrate=N/A speed=12.6x    frame= 5315 fps=303 q=-0.0 size=N/A time=00:03:41.67 bitrate=N/A speed=12.6x    frame= 5504 fps=305 q=-0.0 size=N/A time=00:03:49.56 bitrate=N/A speed=12.7x    frame= 5691 fps=306 q=-0.0 size=N/A time=00:03:57.36 bitrate=N/A speed=12.8x    frame= 5847 fps=306 q=-0.0 size=N/A time=00:04:03.86 bitrate=N/A speed=12.8x    frame= 5960 fps=304 q=-0.0 size=N/A time=00:04:08.58 bitrate=N/A speed=12.7x    frame= 6144 fps=305 q=-0.0 size=N/A time=00:04:16.25 bitrate=N/A speed=12.7x    frame= 6322 fps=306 q=-0.0 size=N/A time=00:04:23.68 bitrate=N/A speed=12.8x    frame= 6496 fps=307 q=-0.0 size=N/A time=00:04:30.93 bitrate=N/A speed=12.8x    frame= 6662 fps=308 q=-0.0 size=N/A time=00:04:37.86 bitrate=N/A speed=12.8x    frame= 6839 fps=308 q=-0.0 size=N/A time=00:04:45.24 bitrate=N/A speed=12.9x    frame= 7007 fps=309 q=-0.0 size=N/A time=00:04:52.25 bitrate=N/A speed=12.9x    frame= 7155 fps=308 q=-0.0 size=N/A time=00:04:58.42 bitrate=N/A speed=12.9x    frame= 7333 fps=309 q=-0.0 size=N/A time=00:05:05.84 bitrate=N/A speed=12.9x    frame= 7499 fps=309 q=-0.0 size=N/A time=00:05:12.77 bitrate=N/A speed=12.9x    frame= 7676 fps=310 q=-0.0 size=N/A time=00:05:20.15 bitrate=N/A speed=12.9x    frame= 7842 fps=310 q=-0.0 size=N/A time=00:05:27.07 bitrate=N/A speed=12.9x    frame= 8015 fps=311 q=-0.0 size=N/A time=00:05:34.29 bitrate=N/A speed=  13x    frame= 8141 fps=309 q=-0.0 size=N/A time=00:05:39.54 bitrate=N/A speed=12.9x    frame= 8325 fps=310 q=-0.0 size=N/A time=00:05:47.22 bitrate=N/A speed=12.9x    frame= 8487 fps=310 q=-0.0 size=N/A time=00:05:53.97 bitrate=N/A speed=12.9x    frame= 8658 fps=311 q=-0.0 size=N/A time=00:06:01.11 bitrate=N/A speed=  13x    frame= 8815 fps=311 q=-0.0 size=N/A time=00:06:07.65 bitrate=N/A speed=  13x    frame= 8990 fps=311 q=-0.0 size=N/A time=00:06:14.95 bitrate=N/A speed=  13x    frame= 9146 fps=311 q=-0.0 size=N/A time=00:06:21.46 bitrate=N/A speed=  13x    frame= 9319 fps=311 q=-0.0 size=N/A time=00:06:28.67 bitrate=N/A speed=  13x    frame= 9487 fps=312 q=-0.0 size=N/A time=00:06:35.68 bitrate=N/A speed=  13x    frame= 9667 fps=312 q=-0.0 size=N/A time=00:06:43.19 bitrate=N/A speed=  13x    frame= 9834 fps=312 q=-0.0 size=N/A time=00:06:50.15 bitrate=N/A speed=  13x    frame=10016 fps=313 q=-0.0 size=N/A time=00:06:57.75 bitrate=N/A speed=13.1x    frame=10158 fps=313 q=-0.0 size=N/A time=00:07:03.67 bitrate=N/A speed=  13x    frame=10337 fps=313 q=-0.0 size=N/A time=00:07:11.13 bitrate=N/A speed=13.1x    frame=10479 fps=313 q=-0.0 size=N/A time=00:07:17.06 bitrate=N/A speed=  13x    frame=10650 fps=313 q=-0.0 size=N/A time=00:07:24.19 bitrate=N/A speed=  13x    frame=10814 fps=313 q=-0.0 size=N/A time=00:07:31.03 bitrate=N/A speed=13.1x    frame=10976 fps=313 q=-0.0 size=N/A time=00:07:37.79 bitrate=N/A speed=13.1x    frame=11132 fps=313 q=-0.0 size=N/A time=00:07:44.29 bitrate=N/A speed=  13x    frame=11302 fps=313 q=-0.0 size=N/A time=00:07:51.38 bitrate=N/A speed=13.1x    frame=11482 fps=313 q=-0.0 size=N/A time=00:07:58.89 bitrate=N/A speed=13.1x    frame=11665 fps=314 q=-0.0 size=N/A time=00:08:06.52 bitrate=N/A speed=13.1x    frame=11837 fps=314 q=-0.0 size=N/A time=00:08:13.70 bitrate=N/A speed=13.1x    frame=11992 fps=314 q=-0.0 size=N/A time=00:08:20.16 bitrate=N/A speed=13.1x    frame=12159 fps=314 q=-0.0 size=N/A time=00:08:27.13 bitrate=N/A speed=13.1x    frame=12339 fps=315 q=-0.0 size=N/A time=00:08:34.63 bitrate=N/A speed=13.1x    frame=12518 fps=315 q=-0.0 size=N/A time=00:08:42.10 bitrate=N/A speed=13.1x    frame=12671 fps=315 q=-0.0 size=N/A time=00:08:48.48 bitrate=N/A speed=13.1x    frame=12850 fps=315 q=-0.0 size=N/A time=00:08:55.95 bitrate=N/A speed=13.2x    frame=13025 fps=316 q=-0.0 size=N/A time=00:09:03.25 bitrate=N/A speed=13.2x    frame=13206 fps=316 q=-0.0 size=N/A time=00:09:10.80 bitrate=N/A speed=13.2x    frame=13365 fps=316 q=-0.0 size=N/A time=00:09:17.43 bitrate=N/A speed=13.2x    frame=13528 fps=316 q=-0.0 size=N/A time=00:09:24.23 bitrate=N/A speed=13.2x    frame=13708 fps=316 q=-0.0 size=N/A time=00:09:31.73 bitrate=N/A speed=13.2x    frame=13889 fps=317 q=-0.0 size=N/A time=00:09:39.28 bitrate=N/A speed=13.2x    frame=14052 fps=317 q=-0.0 size=N/A time=00:09:46.08 bitrate=N/A speed=13.2x    frame=14198 fps=316 q=-0.0 size=N/A time=00:09:52.17 bitrate=N/A speed=13.2x    frame=14348 fps=316 q=-0.0 size=N/A time=00:09:58.43 bitrate=N/A speed=13.2x    frame=14527 fps=317 q=-0.0 size=N/A time=00:10:05.89 bitrate=N/A speed=13.2x    frame=14703 fps=317 q=-0.0 size=N/A time=00:10:13.23 bitrate=N/A speed=13.2x    frame=14882 fps=317 q=-0.0 size=N/A time=00:10:20.70 bitrate=N/A speed=13.2x    frame=15041 fps=317 q=-0.0 size=N/A time=00:10:27.33 bitrate=N/A speed=13.2x    frame=15196 fps=317 q=-0.0 size=N/A time=00:10:33.79 bitrate=N/A speed=13.2x    frame=15360 fps=317 q=-0.0 size=N/A time=00:10:40.64 bitrate=N/A speed=13.2x    frame=15530 fps=317 q=-0.0 size=N/A time=00:10:47.73 bitrate=N/A speed=13.2x    frame=15684 fps=317 q=-0.0 size=N/A time=00:10:54.15 bitrate=N/A speed=13.2x    frame=15865 fps=317 q=-0.0 size=N/A time=00:11:01.70 bitrate=N/A speed=13.2x    frame=16035 fps=317 q=-0.0 size=N/A time=00:11:08.79 bitrate=N/A speed=13.2x    frame=16211 fps=317 q=-0.0 size=N/A time=00:11:16.13 bitrate=N/A speed=13.2x    frame=16387 fps=318 q=-0.0 size=N/A time=00:11:23.47 bitrate=N/A speed=13.3x    frame=16554 fps=318 q=-0.0 size=N/A time=00:11:30.43 bitrate=N/A speed=13.3x    frame=16724 fps=318 q=-0.0 size=N/A time=00:11:37.53 bitrate=N/A speed=13.3x    frame=16907 fps=318 q=-0.0 size=N/A time=00:11:45.16 bitrate=N/A speed=13.3x    frame=17092 fps=319 q=-0.0 size=N/A time=00:11:52.87 bitrate=N/A speed=13.3x    frame=17264 fps=319 q=-0.0 size=N/A time=00:12:00.05 bitrate=N/A speed=13.3x    frame=17432 fps=319 q=-0.0 size=N/A time=00:12:07.05 bitrate=N/A speed=13.3x    frame=17578 fps=318 q=-0.0 size=N/A time=00:12:13.14 bitrate=N/A speed=13.3x    frame=17741 fps=318 q=-0.0 size=N/A time=00:12:19.94 bitrate=N/A speed=13.3x    frame=17898 fps=318 q=-0.0 size=N/A time=00:12:26.49 bitrate=N/A speed=13.3x    frame=18087 fps=319 q=-0.0 size=N/A time=00:12:34.37 bitrate=N/A speed=13.3x    frame=18249 fps=319 q=-0.0 size=N/A time=00:12:41.13 bitrate=N/A speed=13.3x    frame=18425 fps=319 q=-0.0 size=N/A time=00:12:48.47 bitrate=N/A speed=13.3x    frame=18582 fps=319 q=-0.0 size=N/A time=00:12:55.02 bitrate=N/A speed=13.3x    frame=18770 fps=319 q=-0.0 size=N/A time=00:13:02.86 bitrate=N/A speed=13.3x    frame=18958 fps=320 q=-0.0 size=N/A time=00:13:10.70 bitrate=N/A speed=13.3x    frame=19150 fps=320 q=-0.0 size=N/A time=00:13:18.71 bitrate=N/A speed=13.3x    frame=19328 fps=320 q=-0.0 size=N/A time=00:13:26.13 bitrate=N/A speed=13.4x    frame=19512 fps=321 q=-0.0 size=N/A time=00:13:33.81 bitrate=N/A speed=13.4x    frame=19672 fps=320 q=-0.0 size=N/A time=00:13:40.48 bitrate=N/A speed=13.4x    frame=19856 fps=321 q=-0.0 size=N/A time=00:13:48.16 bitrate=N/A speed=13.4x    frame=20014 fps=321 q=-0.0 size=N/A time=00:13:54.75 bitrate=N/A speed=13.4x    frame=20209 fps=321 q=-0.0 size=N/A time=00:14:02.88 bitrate=N/A speed=13.4x    frame=20388 fps=321 q=-0.0 size=N/A time=00:14:10.34 bitrate=N/A speed=13.4x    frame=20555 fps=321 q=-0.0 size=N/A time=00:14:17.31 bitrate=N/A speed=13.4x    frame=20701 fps=321 q=-0.0 size=N/A time=00:14:23.40 bitrate=N/A speed=13.4x    frame=20882 fps=321 q=-0.0 size=N/A time=00:14:30.95 bitrate=N/A speed=13.4x    frame=21051 fps=321 q=-0.0 size=N/A time=00:14:38.00 bitrate=N/A speed=13.4x    frame=21224 fps=321 q=-0.0 size=N/A time=00:14:45.21 bitrate=N/A speed=13.4x    frame=21389 fps=321 q=-0.0 size=N/A time=00:14:52.09 bitrate=N/A speed=13.4x    frame=21568 fps=322 q=-0.0 size=N/A time=00:14:59.56 bitrate=N/A speed=13.4x    frame=21748 fps=322 q=-0.0 size=N/A time=00:15:07.07 bitrate=N/A speed=13.4x    frame=21913 fps=322 q=-0.0 size=N/A time=00:15:13.95 bitrate=N/A speed=13.4x    frame=22083 fps=322 q=-0.0 size=N/A time=00:15:21.04 bitrate=N/A speed=13.4x    frame=22259 fps=322 q=-0.0 size=N/A time=00:15:28.38 bitrate=N/A speed=13.4x    frame=22437 fps=322 q=-0.0 size=N/A time=00:15:35.80 bitrate=N/A speed=13.4x    frame=22603 fps=322 q=-0.0 size=N/A time=00:15:42.73 bitrate=N/A speed=13.4x    frame=22778 fps=322 q=-0.0 size=N/A time=00:15:50.03 bitrate=N/A speed=13.4x    frame=22955 fps=322 q=-0.0 size=N/A time=00:15:57.41 bitrate=N/A speed=13.4x    frame=23118 fps=322 q=-0.0 size=N/A time=00:16:04.21 bitrate=N/A speed=13.4x    frame=23273 fps=322 q=-0.0 size=N/A time=00:16:10.67 bitrate=N/A speed=13.4x    frame=23446 fps=322 q=-0.0 size=N/A time=00:16:17.89 bitrate=N/A speed=13.4x    frame=23612 fps=322 q=-0.0 size=N/A time=00:16:24.81 bitrate=N/A speed=13.4x    frame=23791 fps=323 q=-0.0 size=N/A time=00:16:32.28 bitrate=N/A speed=13.5x    frame=23954 fps=322 q=-0.0 size=N/A time=00:16:39.08 bitrate=N/A speed=13.4x    frame=24131 fps=323 q=-0.0 size=N/A time=00:16:46.46 bitrate=N/A speed=13.5x    frame=24290 fps=323 q=-0.0 size=N/A time=00:16:53.09 bitrate=N/A speed=13.5x    frame=24472 fps=323 q=-0.0 size=N/A time=00:17:00.68 bitrate=N/A speed=13.5x    frame=24619 fps=322 q=-0.0 size=N/A time=00:17:06.81 bitrate=N/A speed=13.5x    frame=24798 fps=323 q=-0.0 size=N/A time=00:17:14.28 bitrate=N/A speed=13.5x    frame=24976 fps=323 q=-0.0 size=N/A time=00:17:21.70 bitrate=N/A speed=13.5x    frame=25163 fps=323 q=-0.0 size=N/A time=00:17:29.50 bitrate=N/A speed=13.5x    frame=25331 fps=323 q=-0.0 size=N/A time=00:17:36.51 bitrate=N/A speed=13.5x    frame=25523 fps=323 q=-0.0 size=N/A time=00:17:44.52 bitrate=N/A speed=13.5x    frame=25634 fps=323 q=-0.0 size=N/A time=00:17:49.15 bitrate=N/A speed=13.5x    frame=25808 fps=323 q=-0.0 size=N/A time=00:17:56.40 bitrate=N/A speed=13.5x    frame=25971 fps=323 q=-0.0 size=N/A time=00:18:03.20 bitrate=N/A speed=13.5x    frame=26137 fps=323 q=-0.0 size=N/A time=00:18:10.13 bitrate=N/A speed=13.5x    frame=26290 fps=323 q=-0.0 size=N/A time=00:18:16.51 bitrate=N/A speed=13.5x    frame=26461 fps=323 q=-0.0 size=N/A time=00:18:23.64 bitrate=N/A speed=13.5x    frame=26638 fps=323 q=-0.0 size=N/A time=00:18:31.02 bitrate=N/A speed=13.5x    frame=26807 fps=323 q=-0.0 size=N/A time=00:18:38.07 bitrate=N/A speed=13.5x    frame=26968 fps=323 q=-0.0 size=N/A time=00:18:44.79 bitrate=N/A speed=13.5x    frame=27136 fps=323 q=-0.0 size=N/A time=00:18:51.79 bitrate=N/A speed=13.5x    frame=27305 fps=323 q=-0.0 size=N/A time=00:18:58.84 bitrate=N/A speed=13.5x    frame=27456 fps=323 q=-0.0 size=N/A time=00:19:05.14 bitrate=N/A speed=13.5x    frame=27627 fps=323 q=-0.0 size=N/A time=00:19:12.27 bitrate=N/A speed=13.5x    frame=27784 fps=322 q=-0.0 size=N/A time=00:19:18.82 bitrate=N/A speed=13.5x    frame=27958 fps=323 q=-0.0 size=N/A time=00:19:26.08 bitrate=N/A speed=13.5x    frame=28130 fps=323 q=-0.0 size=N/A time=00:19:33.25 bitrate=N/A speed=13.5x    frame=28308 fps=323 q=-0.0 size=N/A time=00:19:40.67 bitrate=N/A speed=13.5x    frame=28465 fps=323 q=-0.0 size=N/A time=00:19:47.22 bitrate=N/A speed=13.5x    frame=28645 fps=323 q=-0.0 size=N/A time=00:19:54.73 bitrate=N/A speed=13.5x    frame=28802 fps=323 q=-0.0 size=N/A time=00:20:01.28 bitrate=N/A speed=13.5x    frame=28969 fps=323 q=-0.0 size=N/A time=00:20:08.24 bitrate=N/A speed=13.5x    frame=29130 fps=323 q=-0.0 size=N/A time=00:20:14.96 bitrate=N/A speed=13.5x    frame=29298 fps=323 q=-0.0 size=N/A time=00:20:21.97 bitrate=N/A speed=13.5x    frame=29453 fps=323 q=-0.0 size=N/A time=00:20:28.43 bitrate=N/A speed=13.5x    frame=29618 fps=322 q=-0.0 size=N/A time=00:20:35.31 bitrate=N/A speed=13.4x    frame=29745 fps=322 q=-0.0 size=N/A time=00:20:40.61 bitrate=N/A speed=13.4x    frame=29917 fps=322 q=-0.0 size=N/A time=00:20:47.78 bitrate=N/A speed=13.4x    frame=30061 fps=322 q=-0.0 size=N/A time=00:20:53.79 bitrate=N/A speed=13.4x    frame=30246 fps=322 q=-0.0 size=N/A time=00:21:01.51 bitrate=N/A speed=13.4x    frame=30418 fps=322 q=-0.0 size=N/A time=00:21:08.68 bitrate=N/A speed=13.4x    frame=30613 fps=322 q=-0.0 size=N/A time=00:21:16.81 bitrate=N/A speed=13.4x    frame=30773 fps=322 q=-0.0 size=N/A time=00:21:23.49 bitrate=N/A speed=13.4x    frame=30968 fps=323 q=-0.0 size=N/A time=00:21:31.62 bitrate=N/A speed=13.5x    frame=31160 fps=323 q=-0.0 size=N/A time=00:21:39.63 bitrate=N/A speed=13.5x    frame=31338 fps=323 q=-0.0 size=N/A time=00:21:47.05 bitrate=N/A speed=13.5x    frame=31497 fps=323 q=-0.0 size=N/A time=00:21:53.68 bitrate=N/A speed=13.5x    frame=31658 fps=323 q=-0.0 size=N/A time=00:22:00.40 bitrate=N/A speed=13.5x    frame=31797 fps=323 q=-0.0 size=N/A time=00:22:06.19 bitrate=N/A speed=13.5x    frame=31966 fps=323 q=-0.0 size=N/A time=00:22:13.24 bitrate=N/A speed=13.5x    frame=32151 fps=323 q=-0.0 size=N/A time=00:22:20.96 bitrate=N/A speed=13.5x    frame=32315 fps=323 q=-0.0 size=N/A time=00:22:27.80 bitrate=N/A speed=13.5x    frame=32492 fps=323 q=-0.0 size=N/A time=00:22:35.18 bitrate=N/A speed=13.5x    frame=32641 fps=323 q=-0.0 size=N/A time=00:22:41.40 bitrate=N/A speed=13.5x    frame=32775 fps=322 q=-0.0 size=N/A time=00:22:46.99 bitrate=N/A speed=13.4x    frame=32931 fps=322 q=-0.0 size=N/A time=00:22:53.49 bitrate=N/A speed=13.4x    frame=33101 fps=322 q=-0.0 size=N/A time=00:23:00.58 bitrate=N/A speed=13.4x    frame=33269 fps=322 q=-0.0 size=N/A time=00:23:07.59 bitrate=N/A speed=13.4x    frame=33438 fps=322 q=-0.0 size=N/A time=00:23:14.64 bitrate=N/A speed=13.4x    frame=33573 fps=322 q=-0.0 size=N/A time=00:23:20.27 bitrate=N/A speed=13.4x    frame=33720 fps=322 q=-0.0 size=N/A time=00:23:26.40 bitrate=N/A speed=13.4x    frame=33831 fps=321 q=-0.0 size=N/A time=00:23:31.03 bitrate=N/A speed=13.4x    frame=33963 fps=321 q=-0.0 size=N/A time=00:23:36.54 bitrate=N/A speed=13.4x    frame=34121 fps=321 q=-0.0 size=N/A time=00:23:43.13 bitrate=N/A speed=13.4x    frame=34271 fps=321 q=-0.0 size=N/A time=00:23:49.38 bitrate=N/A speed=13.4x    frame=34379 fps=320 q=-0.0 size=N/A time=00:23:53.89 bitrate=N/A speed=13.4x    frame=34516 fps=320 q=-0.0 size=N/A time=00:23:59.60 bitrate=N/A speed=13.4x    frame=34656 fps=320 q=-0.0 size=N/A time=00:24:05.44 bitrate=N/A speed=13.3x    [Parsed_ssim_16 @ 000001f4b4ab8480] SSIM Y:0.994166 (22.340044) U:0.993993 (22.213563) V:0.993599 (21.937664) All:0.994042 (22.249340)
[out#0/null @ 000001f4acf88a00] video:14903KiB audio:271276KiB subtitle:0KiB other streams:0KiB global headers:0KiB muxing overhead: unknown
frame=34683 fps=320 q=-0.0 Lsize=N/A time=00:24:06.57 bitrate=N/A speed=13.3x    
